<svg xmlns="http://www.w3.org/2000/svg" width="640" height="360" viewBox="0 0 640 360" role="img" aria-label="Benefits style survey dashboard">
  <rect width="640" height="360" rx="24" fill="#eef4ef"/>
  <rect x="42" y="42" width="556" height="276" rx="18" fill="#ffffff" stroke="#c9d9d1" stroke-width="2"/>
  <rect x="72" y="74" width="172" height="214" rx="14" fill="#f7faf8" stroke="#d6e3dd"/>
  <rect x="272" y="74" width="130" height="92" rx="14" fill="#e8f3f1" stroke="#9fc8c0"/>
  <rect x="422" y="74" width="130" height="92" rx="14" fill="#edf2fb" stroke="#afc3e4"/>
  <rect x="272" y="190" width="280" height="98" rx="14" fill="#fff8e8" stroke="#e3c36d"/>
  <circle cx="108" cy="116" r="20" fill="#1f6f64"/>
  <path d="M101 116l5 5 12-14" fill="none" stroke="#ffffff" stroke-width="5" stroke-linecap="round" stroke-linejoin="round"/>
  <rect x="136" y="100" width="74" height="10" rx="5" fill="#52615a"/>
  <rect x="136" y="121" width="52" height="8" rx="4" fill="#8d9b94"/>
  <circle cx="108" cy="178" r="20" fill="#345f9f"/>
  <path d="M99 179h18M108 170v18" stroke="#ffffff" stroke-width="5" stroke-linecap="round"/>
  <rect x="136" y="162" width="84" height="10" rx="5" fill="#52615a"/>
  <rect x="136" y="183" width="62" height="8" rx="4" fill="#8d9b94"/>
  <circle cx="108" cy="240" r="20" fill="#a06f21"/>
  <path d="M101 240h14M108 233v14" stroke="#ffffff" stroke-width="5" stroke-linecap="round"/>
  <rect x="136" y="224" width="70" height="10" rx="5" fill="#52615a"/>
  <rect x="136" y="245" width="82" height="8" rx="4" fill="#8d9b94"/>
  <rect x="296" y="104" width="54" height="10" rx="5" fill="#1f6f64"/>
  <rect x="296" y="128" width="82" height="8" rx="4" fill="#69837c"/>
  <rect x="446" y="104" width="54" height="10" rx="5" fill="#345f9f"/>
  <rect x="446" y="128" width="74" height="8" rx="4" fill="#6d7f9b"/>
  <rect x="302" y="222" width="88" height="10" rx="5" fill="#8a621f"/>
  <rect x="302" y="248" width="198" height="8" rx="4" fill="#987f42"/>
  <rect x="302" y="264" width="152" height="8" rx="4" fill="#987f42"/>
</svg>
