<svg xmlns="http://www.w3.org/2000/svg" width="560" height="360" viewBox="0 0 560 360" role="img" aria-label="Plain text consent notice">
  <rect width="560" height="360" rx="18" fill="#fbfbf8"/>
  <rect x="32" y="30" width="496" height="300" rx="12" fill="#ffffff" stroke="#cfcfc7" stroke-width="2"/>
  <rect x="64" y="62" width="230" height="16" rx="8" fill="#303a36"/>
  <rect x="64" y="100" width="402" height="9" rx="4.5" fill="#6a706c"/>
  <rect x="64" y="118" width="370" height="9" rx="4.5" fill="#8a918c"/>
  <rect x="64" y="136" width="388" height="9" rx="4.5" fill="#8a918c"/>
  <rect x="64" y="174" width="132" height="12" rx="6" fill="#303a36"/>
  <rect x="64" y="204" width="420" height="9" rx="4.5" fill="#7c837f"/>
  <rect x="64" y="222" width="392" height="9" rx="4.5" fill="#9aa19d"/>
  <rect x="64" y="240" width="332" height="9" rx="4.5" fill="#9aa19d"/>
  <rect x="64" y="278" width="112" height="12" rx="6" fill="#303a36"/>
  <rect x="64" y="304" width="250" height="9" rx="4.5" fill="#7c837f"/>
</svg>
