<svg xmlns="http://www.w3.org/2000/svg" width="560" height="360" viewBox="0 0 560 360" role="img" aria-label="Trust cue consent notice">
  <rect width="560" height="360" rx="18" fill="#edf7f4"/>
  <rect x="30" y="30" width="500" height="300" rx="16" fill="#ffffff" stroke="#9fc8c0" stroke-width="2"/>
  <rect x="62" y="62" width="188" height="16" rx="8" fill="#1f6f64"/>
  <rect x="62" y="96" width="332" height="10" rx="5" fill="#6f817b"/>
  <g fill="#f7fbfa" stroke-width="2">
    <rect x="62" y="134" width="128" height="76" rx="14" stroke="#9fc8c0"/>
    <rect x="216" y="134" width="128" height="76" rx="14" stroke="#b7c6df"/>
    <rect x="370" y="134" width="128" height="76" rx="14" stroke="#dfc47a"/>
    <rect x="62" y="232" width="206" height="62" rx="14" stroke="#9fc8c0"/>
    <rect x="292" y="232" width="206" height="62" rx="14" stroke="#b7c6df"/>
  </g>
  <circle cx="94" cy="166" r="16" fill="#1f6f64"/>
  <path d="M87 166l5 5 10-13" fill="none" stroke="#ffffff" stroke-width="4" stroke-linecap="round" stroke-linejoin="round"/>
  <circle cx="248" cy="166" r="16" fill="#345f9f"/>
  <path d="M240 166h16M248 158v16" stroke="#ffffff" stroke-width="4" stroke-linecap="round"/>
  <circle cx="402" cy="166" r="16" fill="#a06f21"/>
  <path d="M394 166h16" stroke="#ffffff" stroke-width="4" stroke-linecap="round"/>
  <rect x="116" y="158" width="46" height="9" rx="4.5" fill="#43524d"/>
  <rect x="116" y="176" width="54" height="7" rx="3.5" fill="#81908a"/>
  <rect x="270" y="158" width="46" height="9" rx="4.5" fill="#43524d"/>
  <rect x="270" y="176" width="54" height="7" rx="3.5" fill="#81908a"/>
  <rect x="424" y="158" width="46" height="9" rx="4.5" fill="#43524d"/>
  <rect x="424" y="176" width="54" height="7" rx="3.5" fill="#81908a"/>
  <rect x="92" y="254" width="116" height="9" rx="4.5" fill="#43524d"/>
  <rect x="92" y="272" width="140" height="7" rx="3.5" fill="#81908a"/>
  <rect x="322" y="254" width="116" height="9" rx="4.5" fill="#43524d"/>
  <rect x="322" y="272" width="118" height="7" rx="3.5" fill="#81908a"/>
</svg>
